<svg width="254" height="254" viewBox="0 0 254 254" fill="none" xmlns="http://www.w3.org/2000/svg">
<g clip-path="url(#clip0_25_1463)">
<path d="M0 0C83.82 0 167.64 0 254 0C254 83.82 254 167.64 254 254C170.18 254 86.36 254 0 254C0 170.18 0 86.36 0 0Z" fill="#172339"/>
<path d="M138.104 72.4598C138.403 72.506 138.701 72.5522 139.009 72.5999C145.43 73.6179 151.803 74.9789 157.922 77.1994C158.17 77.2878 158.418 77.3762 158.673 77.4673C158.889 77.547 159.104 77.6267 159.326 77.7087C159.996 77.8641 160.355 77.8131 160.995 77.5767C161.467 77.2196 161.467 77.2196 161.904 76.7856C163.003 75.8103 163.925 75.4869 165.388 75.3212C167.034 75.4886 168.497 76.0297 169.596 77.3074C170.436 78.5293 170.72 79.1458 170.661 80.6328C170.739 81.6176 170.795 82.0097 171.545 82.6714C172.387 83.1343 173.237 83.5175 174.124 83.8887C174.766 84.1826 175.407 84.4779 176.047 84.7745C176.369 84.9204 176.691 85.0663 177.023 85.2166C178.407 85.8643 179.735 86.5945 181.059 87.3561C181.293 87.4903 181.528 87.6245 181.769 87.7629C183.17 88.5817 184.398 89.4841 185.625 90.5468C186.512 91.1884 187.449 91.5965 188.448 92.0353C190.976 93.1529 193.163 94.6583 195.402 96.2661C195.977 96.6775 196.557 97.0817 197.138 97.4836C197.479 97.7209 197.82 97.9582 198.16 98.1958C198.313 98.3017 198.467 98.4075 198.625 98.5165C199.43 99.0879 200.042 99.6391 200.584 100.468C200.204 100.657 199.822 100.841 199.439 101.024C199.227 101.127 199.014 101.23 198.795 101.336C198.059 101.579 197.806 101.517 197.083 101.276C196.634 101.009 196.634 101.009 196.184 100.675C196.012 100.55 195.839 100.424 195.661 100.295C195.475 100.158 195.289 100.02 195.097 99.879C193.027 98.3853 190.902 97.0015 188.742 95.6439C187.461 94.8379 186.194 94.0202 184.947 93.1622C183.158 91.9324 181.329 90.9239 179.373 89.9829C178.111 89.375 176.876 88.7198 175.639 88.063C175.209 87.8367 174.778 87.6105 174.348 87.3845C173.559 86.9695 172.773 86.549 171.99 86.1242C171.652 85.9455 171.314 85.767 170.976 85.5887C170.685 85.4318 170.394 85.2749 170.094 85.1132C169.377 84.7727 169.377 84.7727 168.787 85.0375C168.615 85.1527 168.444 85.268 168.266 85.3867C166.751 86.0838 165.333 86.1323 163.688 85.9254C162.176 85.3561 161.181 84.4119 160.456 82.9629C160.255 81.9194 160.255 81.9194 160.187 81.0778C160.008 81.0483 159.828 81.0187 159.643 80.9883C158.855 80.8116 158.114 80.5637 157.353 80.2921C153.973 79.0899 150.493 78.3361 146.991 77.5767C147.18 77.7298 147.369 77.8829 147.563 78.0406C148.362 78.691 149.158 79.3455 149.953 80.0005C150.148 80.1578 150.344 80.315 150.545 80.4771C156.048 85.0562 159.939 92.6222 160.995 99.6602C161.084 100.993 161.173 102.326 161.264 103.7C164.73 103.611 168.196 103.522 171.768 103.431C172.212 102.542 172.656 101.653 173.114 100.737C173.854 100.1 174.449 99.6039 175.269 99.1216C175.433 99.0209 175.598 98.9202 175.768 98.8165C177.188 98.2424 179.056 98.3501 180.508 98.7776C182.266 99.6063 183.463 100.948 184.425 102.623C184.425 102.978 184.425 103.334 184.425 103.7C194.023 103.567 194.023 103.567 203.815 103.431C204.215 102.631 204.215 102.631 204.623 101.815C205.136 101.254 205.136 101.254 205.684 100.788C205.864 100.631 206.044 100.473 206.23 100.311C207.365 99.5206 208.664 99.5305 210.01 99.6602C211.768 100.019 212.786 100.882 213.78 102.353C214.505 103.577 214.486 104.736 214.319 106.124C213.772 107.916 212.717 108.972 211.126 109.923C209.872 110.444 208.316 110.394 207.03 109.988C205.818 109.357 204.814 108.353 204.085 107.201C204.085 106.934 204.085 106.668 204.085 106.393C197.597 106.393 191.109 106.393 184.425 106.393C184.336 106.837 184.247 107.282 184.156 107.74C183.259 109.43 181.95 110.663 180.116 111.241C178.225 111.485 176.319 111.534 174.644 110.524C173.511 109.621 172.605 108.539 172.037 107.201C172.037 106.934 172.037 106.668 172.037 106.393C168.482 106.393 164.927 106.393 161.264 106.393C161.264 107.282 161.264 108.17 161.264 109.086C161.149 109.955 161.019 110.789 160.844 111.645C160.796 111.876 160.749 112.108 160.7 112.347C158.891 120.61 153.788 128.679 146.63 133.323C146.483 133.412 146.335 133.501 146.183 133.593C149.964 132.887 153.608 131.988 157.237 130.708C157.465 130.628 157.693 130.549 157.929 130.467C158.131 130.395 158.333 130.323 158.541 130.248C159.11 130.092 159.11 130.092 160.187 130.092C160.154 129.781 160.121 129.47 160.086 129.15C160.086 127.669 160.814 126.821 161.803 125.783C162.857 124.755 163.709 124.624 165.136 124.571C166.501 124.607 167.443 124.798 168.568 125.574C169.373 125.907 169.85 125.74 170.69 125.514C171.599 125.136 172.473 124.699 173.35 124.252C173.607 124.122 173.864 123.992 174.129 123.858C176.942 122.416 179.662 120.821 182.374 119.201C182.973 118.844 183.573 118.493 184.176 118.145C188.307 115.743 192.223 112.96 196.065 110.124C196.775 109.651 197.331 109.287 198.16 109.086C198.822 109.328 198.822 109.328 199.456 109.726C199.669 109.856 199.882 109.985 200.101 110.119C200.26 110.223 200.42 110.326 200.584 110.433C199.483 111.603 198.277 112.548 196.982 113.496C196.76 113.659 196.538 113.822 196.31 113.989C193.587 115.965 190.767 117.789 187.926 119.589C187.615 119.787 187.615 119.787 187.297 119.99C184.728 121.615 182.096 123.123 179.443 124.605C179.287 124.692 179.131 124.78 178.971 124.87C177.427 125.733 175.886 126.574 174.273 127.302C174.047 127.406 173.82 127.51 173.586 127.617C173.173 127.802 172.757 127.979 172.337 128.146C171.712 128.401 171.712 128.401 170.96 129.015C170.785 129.642 170.744 130.208 170.723 130.858C170.644 132.271 169.584 133.385 168.593 134.314C167.148 135.369 165.699 135.457 163.958 135.209C163.032 134.856 163.032 134.856 162.342 134.401C162.025 134.193 162.025 134.193 161.702 133.98C161.558 133.853 161.413 133.725 161.264 133.593C161.264 133.416 161.264 133.238 161.264 133.055C160.911 133.126 160.557 133.199 160.204 133.274C160.007 133.314 159.81 133.355 159.608 133.397C158.747 133.617 157.915 133.895 157.074 134.18C147.294 137.479 136.97 139.3 126.658 139.333C126.32 139.335 126.32 139.335 125.975 139.336C121.312 139.347 116.795 138.822 112.216 137.97C112.026 137.935 111.835 137.899 111.639 137.863C107.418 137.081 103.255 136.165 99.1725 134.819C98.9999 134.762 98.8273 134.705 98.6495 134.647C97.8017 134.367 96.957 134.082 96.1141 133.787C95.8108 133.684 95.5074 133.581 95.1949 133.476C94.9258 133.381 94.6567 133.287 94.3794 133.19C93.6784 132.995 93.6784 132.995 93.0744 133.264C92.5486 133.611 92.5486 133.611 91.9338 134.132C90.6208 135.157 89.3957 135.411 87.7426 135.209C86.0517 134.655 84.7571 133.819 83.7535 132.331C83.4336 131.439 83.4336 131.439 83.4873 130.813C83.5446 129.982 83.5171 129.507 83.1643 128.746C82.1523 128.09 81.1043 127.659 79.9926 127.2C78.4022 126.539 76.9291 125.7 75.4385 124.841C75.0384 124.611 75.0384 124.611 74.6302 124.378C74.1138 124.081 73.5978 123.784 73.0821 123.487C72.5031 123.154 71.9222 122.825 71.3389 122.5C65.7892 119.391 60.5843 115.758 55.4253 112.048C54.7972 111.599 54.1687 111.151 53.5402 110.702C54.2726 109.928 54.9694 109.492 55.964 109.086C56.8459 109.203 57.4379 109.57 58.1616 110.072C58.3736 110.218 58.5857 110.364 58.8042 110.514C59.0278 110.671 59.2514 110.827 59.4818 110.988C59.7138 111.148 59.9457 111.308 60.1847 111.474C61.3401 112.275 62.4815 113.089 63.6056 113.934C69.3003 118.117 75.729 121.448 82.005 124.658C82.5304 124.927 83.0538 125.199 83.5767 125.473C84.2036 125.83 84.2036 125.83 84.797 125.75C85.3506 125.518 85.3506 125.518 85.9185 125.103C87.3869 124.323 89.2316 124.466 90.8165 124.873C92.2525 125.497 93.207 126.567 93.9368 127.938C94.124 128.596 94.1773 129.133 94.2061 129.823C96.2836 130.614 98.3747 131.272 100.518 131.86C100.939 131.977 100.939 131.977 101.369 132.097C102.796 132.493 104.227 132.876 105.661 133.247C105.918 133.314 106.175 133.38 106.44 133.449C107.191 133.63 107.191 133.63 108.21 133.593C108.034 133.472 107.858 133.351 107.676 133.226C101.731 129.036 97.7065 123.627 95.014 116.896C94.9064 116.652 94.7988 116.408 94.6879 116.157C93.4282 113.121 93.1288 109.646 93.1288 106.393C89.4851 106.393 85.8413 106.393 82.0871 106.393C81.9982 106.926 81.9093 107.459 81.8178 108.009C80.9193 109.553 79.6558 110.504 77.978 111.07C76.3819 111.438 74.8423 111.609 73.3114 110.933C71.551 109.822 70.4765 108.607 69.6988 106.662C63.2111 106.573 56.7234 106.485 50.0391 106.393C49.9503 106.837 49.8614 107.282 49.7698 107.74C48.9493 109.141 47.7754 109.7 46.2688 110.163C44.7557 110.419 43.2764 110.131 41.9598 109.355C40.518 108.063 39.8025 106.762 39.6875 104.828C39.7184 103.348 40.2053 102.393 41.1519 101.276C42.5798 99.9526 43.6673 99.5495 45.5871 99.5918C47.1302 99.7466 48.4054 100.45 49.5005 101.545C49.7671 102.167 50.0337 102.79 50.3084 103.431C56.7073 103.519 63.1061 103.608 69.6988 103.7C69.7877 103.255 69.8765 102.811 69.9681 102.353C70.8668 100.729 72.2535 99.2764 74.0078 98.583C76.3352 98.2833 78.2822 98.5409 80.2019 99.9295C81.1329 100.797 81.8542 101.718 82.3564 102.892C82.3564 103.159 82.3564 103.425 82.3564 103.7C85.9113 103.7 89.4662 103.7 93.1288 103.7C93.1288 102.545 93.1288 101.389 93.1288 100.199C93.3603 99.021 93.6098 97.9134 93.9368 96.7651C94.0636 96.3097 94.0636 96.3097 94.193 95.845C96.3875 88.265 101.053 82.1743 107.402 77.5767C104.587 77.9148 101.926 78.7157 99.2186 79.5294C98.5558 79.7195 97.8923 79.8846 97.2211 80.0415C96.1521 80.3044 95.1884 80.5718 94.2061 81.0778C93.7858 81.7743 93.6644 82.3123 93.5486 83.1134C93.2285 84.5122 91.8303 85.1752 90.705 85.9254C89.8582 86.0064 89.8582 86.0064 88.8704 86.0095C88.5465 86.014 88.2226 86.0185 87.8888 86.0232C86.9347 85.9254 86.9347 85.9254 86.0899 85.4993C85.1736 85.0455 84.9332 85.1225 83.9723 85.3867C83.534 85.5628 83.1016 85.7539 82.6752 85.9569C82.4278 86.0744 82.1805 86.1918 81.9256 86.3128C81.6623 86.4405 81.399 86.5681 81.1277 86.6996C80.8522 86.8326 80.5767 86.9657 80.2929 87.1027C72.3694 90.967 64.3486 95.5653 57.5452 101.204C57.0412 101.545 57.0412 101.545 56.1828 101.596C55.3061 101.226 54.5742 100.763 53.8095 100.199C54.7926 99.1676 55.8209 98.3069 56.9739 97.472C57.2364 97.281 57.2364 97.281 57.5041 97.086C59.363 95.7472 61.2804 94.5039 63.2164 93.2802C63.7375 92.9505 64.2566 92.6179 64.7755 92.2847C66.9358 90.9055 69.1363 89.5928 71.3483 88.2987C71.6399 88.1273 71.9315 87.9559 72.2319 87.7794C73.8939 86.8211 75.5659 85.9532 77.3131 85.1606C77.6859 84.988 78.0586 84.8154 78.4313 84.6426C79.1485 84.3109 79.8706 83.9982 80.5997 83.6939C81.5477 83.2725 82.375 82.8427 83.1643 82.155C83.5178 81.2172 83.6284 80.4409 83.6686 79.442C83.7158 78.3599 84.0516 77.8258 84.7802 77.0381C86.1984 75.8315 87.3777 75.3061 89.2796 75.3276C90.6729 75.5412 92.1557 76.2135 93.0312 77.3324C93.1523 77.5019 93.2734 77.6714 93.3981 77.846C94.877 77.4503 96.3519 77.0459 97.8176 76.6036C104.246 74.6647 110.743 73.2752 117.367 72.1905C117.574 72.1544 117.781 72.1182 117.995 72.081C124.509 70.9587 131.617 71.4461 138.104 72.4598Z" fill="#172339"/>
<path d="M138.104 72.4598C138.403 72.506 138.701 72.5522 139.009 72.5999C145.43 73.6179 151.803 74.9789 157.922 77.1994C158.17 77.2878 158.418 77.3762 158.673 77.4673C158.889 77.547 159.104 77.6267 159.326 77.7087C159.996 77.8641 160.355 77.8131 160.995 77.5767C161.467 77.2196 161.467 77.2196 161.904 76.7856C163.003 75.8103 163.925 75.4869 165.388 75.3212C167.034 75.4886 168.497 76.0297 169.596 77.3074C170.436 78.5293 170.72 79.1458 170.661 80.6328C170.739 81.6176 170.795 82.0097 171.545 82.6714C172.387 83.1343 173.237 83.5175 174.124 83.8887C174.766 84.1826 175.407 84.4779 176.047 84.7745C176.369 84.9204 176.691 85.0663 177.023 85.2166C178.407 85.8643 179.735 86.5945 181.059 87.3561C181.293 87.4903 181.528 87.6245 181.769 87.7629C183.17 88.5817 184.425 89.3467 186.058 90.4239C187.674 91.2318 188.021 91.6009 189.02 92.0398C191.579 93.6556 193.163 94.6583 195.402 96.2661C195.977 96.6775 196.557 97.0817 197.138 97.4836C197.479 97.7209 197.82 97.9582 198.16 98.1958C198.313 98.3017 198.467 98.4075 198.625 98.5165C199.43 99.0879 200.042 99.6391 200.584 100.468C200.204 100.657 199.822 100.841 199.439 101.024C199.227 101.127 199.014 101.23 198.795 101.336C198.059 101.579 197.806 101.517 197.083 101.276C196.634 101.009 196.634 101.009 196.184 100.675C196.012 100.55 195.839 100.424 195.661 100.295C195.475 100.158 195.289 100.02 195.097 99.879C193.027 98.3853 190.902 97.0015 188.742 95.6439C187.461 94.8379 186.194 94.0202 184.947 93.1622C183.158 91.9324 181.329 90.9239 179.373 89.9829C178.111 89.375 176.876 88.7198 175.639 88.063C175.209 87.8367 174.778 87.6105 174.348 87.3845C173.559 86.9695 172.773 86.549 171.99 86.1242C171.652 85.9455 171.314 85.767 170.976 85.5887C170.685 85.4318 170.394 85.2749 170.094 85.1132C169.377 84.7727 169.377 84.7727 168.787 85.0375C168.615 85.1527 168.444 85.268 168.266 85.3867C166.751 86.0838 165.333 86.1323 163.688 85.9254C162.176 85.3561 161.181 84.4119 160.456 82.9629C160.255 81.9194 160.255 81.9194 160.187 81.0778C160.008 81.0483 159.828 81.0187 159.643 80.9883C158.855 80.8116 158.114 80.5637 157.353 80.2921C153.973 79.0899 150.493 78.3361 146.991 77.5767C147.18 77.7298 147.369 77.8829 147.563 78.0406C148.362 78.691 149.158 79.3455 149.953 80.0005C150.148 80.1578 150.344 80.315 150.545 80.4771C156.048 85.0562 159.939 92.6222 160.995 99.6602C161.084 100.993 161.173 102.326 161.264 103.7C164.73 103.611 168.196 103.522 171.768 103.431C172.212 102.542 172.656 101.653 173.114 100.737C173.854 100.1 174.449 99.6039 175.269 99.1216C175.433 99.0209 175.598 98.9202 175.768 98.8165C177.188 98.2424 179.056 98.3501 180.508 98.7776C182.266 99.6063 183.463 100.948 184.425 102.623C184.425 102.978 184.425 103.334 184.425 103.7C194.023 103.567 194.023 103.567 203.815 103.431C204.215 102.631 204.215 102.631 204.623 101.815C205.136 101.254 205.136 101.254 205.684 100.788C205.864 100.631 206.044 100.473 206.23 100.311C207.365 99.5206 208.664 99.5305 210.01 99.6602C211.768 100.019 212.786 100.882 213.78 102.353C214.505 103.577 214.486 104.736 214.319 106.124C213.772 107.916 212.717 108.972 211.126 109.923C209.872 110.444 208.316 110.394 207.03 109.988C205.818 109.357 204.814 108.353 204.085 107.201C204.085 106.934 204.085 106.668 204.085 106.393C197.597 106.393 191.109 106.393 184.425 106.393C184.336 106.837 184.247 107.282 184.156 107.74C183.259 109.43 181.95 110.663 180.116 111.241C178.225 111.485 176.319 111.534 174.644 110.524C173.511 109.621 172.605 108.539 172.037 107.201C172.037 106.934 172.037 106.668 172.037 106.393C168.482 106.393 164.927 106.393 161.264 106.393C161.264 107.282 161.264 108.17 161.264 109.086C161.149 109.955 161.019 110.789 160.844 111.645C160.796 111.876 160.749 112.108 160.7 112.347C158.891 120.61 153.788 128.679 146.63 133.323C146.483 133.412 146.335 133.501 146.183 133.593C149.964 132.887 153.608 131.988 157.237 130.708C157.465 130.628 157.693 130.549 157.929 130.467C158.131 130.395 158.333 130.323 158.541 130.248C159.11 130.092 159.11 130.092 160.187 130.092C160.154 129.781 160.121 129.47 160.086 129.15C160.086 127.669 160.814 126.821 161.803 125.783C162.857 124.755 163.709 124.624 165.136 124.571C166.501 124.607 167.443 124.798 168.568 125.574C169.373 125.907 169.85 125.74 170.69 125.514C171.599 125.136 172.473 124.699 173.35 124.252C173.607 124.122 173.864 123.992 174.129 123.858C176.942 122.416 179.662 120.821 182.374 119.201C182.973 118.844 183.573 118.493 184.176 118.145C188.307 115.743 192.223 112.96 196.065 110.124C196.775 109.651 197.331 109.287 198.16 109.086C198.822 109.328 198.822 109.328 199.456 109.726C199.669 109.856 199.882 109.985 200.101 110.119C200.26 110.223 200.42 110.326 200.584 110.433C199.483 111.603 198.277 112.548 196.982 113.496C196.76 113.659 196.538 113.822 196.31 113.989C193.587 115.965 190.767 117.789 187.926 119.589C187.615 119.787 187.615 119.787 187.297 119.99C184.728 121.615 182.096 123.123 179.443 124.605C179.287 124.692 179.131 124.78 178.971 124.87C177.427 125.733 175.886 126.574 174.273 127.302C174.047 127.406 173.82 127.51 173.586 127.617C173.173 127.802 172.757 127.979 172.337 128.146C171.712 128.401 171.712 128.401 170.96 129.015C170.785 129.642 170.744 130.208 170.723 130.858C170.644 132.271 169.584 133.385 168.593 134.314C167.148 135.369 165.699 135.457 163.958 135.209C163.032 134.856 163.032 134.856 162.342 134.401C162.025 134.193 162.025 134.193 161.702 133.98C161.558 133.853 161.413 133.725 161.264 133.593C161.264 133.416 161.264 133.238 161.264 133.055C160.911 133.126 160.557 133.199 160.204 133.274C160.007 133.314 159.81 133.355 159.608 133.397C158.747 133.617 157.915 133.895 157.074 134.18C147.294 137.479 136.97 139.3 126.658 139.333C126.32 139.335 126.32 139.335 125.975 139.336C121.312 139.347 116.795 138.822 112.216 137.97C112.026 137.935 111.835 137.899 111.639 137.863C107.418 137.081 103.255 136.165 99.1725 134.819C98.9999 134.762 98.8273 134.705 98.6495 134.647C97.8017 134.367 96.957 134.082 96.1141 133.787C95.8108 133.684 95.5074 133.581 95.1949 133.476C94.9258 133.381 94.6567 133.287 94.3794 133.19C93.6784 132.995 93.6784 132.995 93.0744 133.264C92.5486 133.611 92.5486 133.611 91.9338 134.132C90.6208 135.157 89.3957 135.411 87.7426 135.209C86.0517 134.655 84.7571 133.819 83.7535 132.331C83.4336 131.439 83.4336 131.439 83.4873 130.813C83.5446 129.982 83.5171 129.507 83.1643 128.746C82.1523 128.09 81.1043 127.659 79.9926 127.2C78.4022 126.539 76.9291 125.7 75.4385 124.841C75.0384 124.611 75.0384 124.611 74.6302 124.378C74.1138 124.081 73.5978 123.784 73.0821 123.487C72.5031 123.154 71.9222 122.825 71.3389 122.5C65.7892 119.391 60.5843 115.758 55.4253 112.048C54.7972 111.599 54.1687 111.151 53.5402 110.702C54.2726 109.928 54.9694 109.492 55.964 109.086C56.8459 109.203 57.4379 109.57 58.1616 110.072C58.3736 110.218 58.5857 110.364 58.8042 110.514C59.0278 110.671 59.2514 110.827 59.4818 110.988C59.7138 111.148 59.9457 111.308 60.1847 111.474C61.3401 112.275 62.4815 113.089 63.6056 113.934C69.3003 118.117 75.729 121.448 82.005 124.658C82.5304 124.927 83.0538 125.199 83.5767 125.473C84.2036 125.83 84.2036 125.83 84.797 125.75C85.3506 125.518 85.3506 125.518 85.9185 125.103C87.3869 124.323 89.2316 124.466 90.8165 124.873C92.2525 125.497 93.207 126.567 93.9368 127.938C94.124 128.596 94.1773 129.133 94.2061 129.823C96.2836 130.614 98.3747 131.272 100.518 131.86C100.939 131.977 100.939 131.977 101.369 132.097C102.796 132.493 104.227 132.876 105.661 133.247C105.918 133.314 106.175 133.38 106.44 133.449C107.191 133.63 107.191 133.63 108.21 133.593C108.034 133.472 107.858 133.351 107.676 133.226C101.731 129.036 97.7065 123.627 95.014 116.896C94.9064 116.652 94.7988 116.408 94.6879 116.157C93.4282 113.121 93.1288 109.646 93.1288 106.393C89.4851 106.393 85.8413 106.393 82.0871 106.393C81.9982 106.926 81.9093 107.459 81.8178 108.009C80.9193 109.553 79.6558 110.504 77.978 111.07C76.3819 111.438 74.8423 111.609 73.3114 110.933C71.551 109.822 70.4765 108.607 69.6988 106.662C63.2111 106.573 56.7234 106.485 50.0391 106.393C49.9503 106.837 49.8614 107.282 49.7698 107.74C48.9493 109.141 47.7754 109.7 46.2688 110.163C44.7557 110.419 43.2764 110.131 41.9598 109.355C40.518 108.063 39.8025 106.762 39.6875 104.828C39.7184 103.348 40.2053 102.393 41.1519 101.276C42.5798 99.9526 43.6673 99.5495 45.5871 99.5918C47.1302 99.7466 48.4054 100.45 49.5005 101.545C49.7671 102.167 50.0337 102.79 50.3084 103.431C56.7073 103.519 63.1061 103.608 69.6988 103.7C69.7877 103.255 69.8765 102.811 69.9681 102.353C70.8668 100.729 72.2535 99.2764 74.0078 98.583C76.3352 98.2833 78.2822 98.5409 80.2019 99.9295C81.1329 100.797 81.8542 101.718 82.3564 102.892C82.3564 103.159 82.3564 103.425 82.3564 103.7C85.9113 103.7 89.4662 103.7 93.1288 103.7C93.1288 102.545 93.1288 101.389 93.1288 100.199C93.3603 99.021 93.6098 97.9134 93.9368 96.7651C94.0636 96.3097 94.0636 96.3097 94.193 95.845C96.3875 88.265 101.053 82.1743 107.402 77.5767C104.587 77.9148 101.926 78.7157 99.2186 79.5294C98.5558 79.7195 97.8923 79.8846 97.2211 80.0415C96.1521 80.3044 95.1884 80.5718 94.2061 81.0778C93.7858 81.7743 93.6644 82.3123 93.5486 83.1134C93.2285 84.5122 91.8303 85.1752 90.705 85.9254C89.8582 86.0064 89.8582 86.0064 88.8704 86.0095C88.5465 86.014 88.2226 86.0185 87.8888 86.0232C86.9347 85.9254 86.9347 85.9254 86.0899 85.4993C85.1736 85.0455 84.9332 85.1225 83.9723 85.3867C83.534 85.5628 83.1016 85.7539 82.6752 85.9569C82.4278 86.0744 82.1805 86.1918 81.9256 86.3128C81.6623 86.4405 81.399 86.5681 81.1277 86.6996C80.8522 86.8326 80.5767 86.9657 80.2929 87.1027C72.3694 90.967 64.3486 95.5653 57.5452 101.204C57.0412 101.545 57.0412 101.545 56.1828 101.596C55.3061 101.226 54.5742 100.763 53.8095 100.199C54.7926 99.1676 55.8209 98.3069 56.9739 97.472C57.2364 97.281 57.2364 97.281 57.5041 97.086C59.363 95.7472 61.2804 94.5039 63.2164 93.2802C63.7375 92.9505 64.2566 92.6179 64.7755 92.2847C66.9358 90.9055 69.1363 89.5928 71.3483 88.2987C71.6399 88.1273 71.9315 87.9559 72.2319 87.7794C73.8939 86.8211 75.5659 85.9532 77.3131 85.1606C77.6859 84.988 78.0586 84.8154 78.4313 84.6426C79.1485 84.3109 79.8706 83.9982 80.5997 83.6939C81.5477 83.2725 82.375 82.8427 83.1643 82.155C83.5178 81.2172 83.6284 80.4409 83.6686 79.442C83.7158 78.3599 84.0516 77.8258 84.7802 77.0381C86.1984 75.8315 87.3777 75.3061 89.2796 75.3276C90.6729 75.5412 92.1557 76.2135 93.0312 77.3324C93.1523 77.5019 93.2734 77.6714 93.3981 77.846C94.877 77.4503 96.3519 77.0459 97.8176 76.6036C104.246 74.6647 110.743 73.2752 117.367 72.1905C117.574 72.1544 117.781 72.1182 117.995 72.081C124.509 70.9587 131.617 71.4461 138.104 72.4598ZM118.983 75.4222C118.649 75.5139 118.315 75.6055 117.971 75.7C113.252 77.1339 108.819 79.8314 105.248 83.2322C105.168 83.3085 105.248 83.2322 104.861 83.6911C104.44 84.0402 104.861 83.6911 104.44 84.0402C99.0438 89.6205 95.9225 97.3849 95.9789 105.112C96.1127 110.079 97.0844 114.613 99.323 119.051C99.4091 119.225 99.4952 119.399 99.584 119.578C100.864 122.12 102.523 124.24 104.44 126.322C104.656 126.56 104.872 126.799 105.095 127.045C110.28 132.502 117.747 135.824 125.248 136.094C133.313 136.26 140.697 134.249 146.991 129.015C147.226 128.821 147.461 128.627 147.703 128.427C153.354 123.557 157.171 116.326 157.988 108.892C158.277 104.916 158.326 100.821 157.225 96.9671C157.173 96.7598 157.121 96.5526 157.067 96.339C155.207 89.8301 150.266 83.2639 144.567 79.7312C144.288 79.5573 144.009 79.3834 143.721 79.2042C136.267 74.7539 127.497 73.0283 118.983 75.4222Z" fill="#F3F4F5"/>
<path d="M125.817 89.0919C130.505 88.9257 134.853 90.3053 138.373 93.4661C141.754 96.6989 143.47 100.494 143.591 105.164C143.47 109.881 141.901 113.646 138.594 116.988C136.603 118.865 134.486 120.031 131.91 120.936C131.72 121.002 131.531 121.069 131.336 121.138C127.246 122.29 122.631 121.479 118.951 119.533C117.64 118.718 116.562 117.723 115.482 116.627C115.284 116.429 115.087 116.231 114.883 116.027C113.581 114.65 112.694 113.263 111.981 111.51C111.875 111.259 111.769 111.009 111.66 110.75C110.263 106.944 110.434 102.342 112.039 98.6324C112.99 96.7332 114.26 95.2344 115.751 93.7354C115.91 93.5666 116.07 93.3979 116.234 93.2241C118.774 90.7458 122.333 89.3416 125.817 89.0919Z" fill="#F5F6F6"/>
<path d="M144.567 164.025C146.945 164.009 149.322 163.992 151.771 163.975C152.515 163.968 153.259 163.96 154.025 163.953C154.625 163.95 155.224 163.948 155.824 163.947C156.127 163.942 156.43 163.938 156.743 163.934C159.259 163.933 161.82 164.088 163.84 165.725C165.104 166.989 165.611 168.002 165.658 169.799C165.599 171.684 165.306 173.141 163.958 174.529C162.835 175.402 161.837 175.489 160.456 175.606C160.456 175.784 160.456 175.961 160.456 176.144C160.601 176.201 160.746 176.258 160.895 176.316C161.777 176.823 162.431 177.524 163.133 178.248C163.271 178.389 163.409 178.529 163.551 178.674C163.824 178.952 164.097 179.231 164.369 179.511C164.752 179.901 165.146 180.28 165.541 180.659C166.112 181.261 166.112 181.261 166.112 181.8C161.579 182.126 161.579 182.126 160.34 181.434C159.87 180.867 159.503 180.269 159.11 179.645C158.596 179.055 158.053 178.493 157.511 177.929C156.148 176.496 156.148 176.496 156.148 175.875C153.57 175.875 150.993 175.875 148.338 175.875C148.338 177.83 148.338 179.785 148.338 181.8C147.093 181.8 145.849 181.8 144.567 181.8C144.567 175.934 144.567 170.069 144.567 164.025Z" fill="#F1F3F4"/>
<path d="M130.967 98.2284C133.283 99.4482 134.855 101.493 135.68 103.969C135.946 106.72 135.69 108.675 134.064 110.971C133.961 111.134 133.858 111.297 133.752 111.465C132.7 112.953 130.892 113.645 129.217 114.203C126.166 114.431 123.937 114.333 121.412 112.461C119.695 110.968 118.869 108.953 118.584 106.727C118.488 104.159 118.93 102.392 120.553 100.402C123.347 97.3983 127.152 96.637 130.967 98.2284Z" fill="#18243A"/>
<path d="M185.938 163.611C187.077 163.744 187.572 163.949 188.442 164.736C189.176 165.724 189.707 166.813 190.249 167.914C190.459 168.307 190.672 168.7 190.886 169.092C191.318 169.886 191.741 170.685 192.159 171.487C193.048 173.179 194.047 174.801 195.046 176.431C195.638 177.411 196.227 178.393 196.813 179.376C196.928 179.568 197.043 179.76 197.162 179.958C197.891 181.197 197.891 181.197 197.891 181.8C194.901 182.155 194.901 182.155 193.582 181.8C192.641 180.946 192.137 180.022 191.697 178.837C191.697 178.66 191.697 178.482 191.697 178.299C187.431 178.299 183.165 178.299 178.77 178.299C178.503 178.965 178.503 178.965 178.231 179.645C177.884 180.37 177.518 181.084 177.154 181.8C175.643 181.8 174.132 181.8 172.575 181.8C172.946 180.874 173.273 180.13 173.772 179.291C173.971 178.954 173.971 178.954 174.174 178.611C174.318 178.369 174.463 178.127 174.612 177.878C174.764 177.623 174.915 177.368 175.071 177.106C176.373 174.922 177.688 172.747 179.005 170.573C179.101 170.416 179.196 170.258 179.294 170.096C179.751 169.342 180.212 168.59 180.683 167.844C181.208 167.001 181.208 167.001 181.588 166.106C182.589 164.038 183.719 163.561 185.938 163.611Z" fill="#F3F3F4"/>
<path d="M57.3105 164.025C61.6195 164.025 61.6195 164.025 62.8314 164.985C63.1496 165.38 63.464 165.778 63.774 166.18C64.0859 166.469 64.4061 166.75 64.7334 167.022C65.7847 167.927 66.8003 168.868 67.8136 169.816C67.9848 169.976 68.1559 170.136 68.3322 170.301C69.2698 171.179 70.2054 172.059 71.14 172.94C71.3324 173.121 71.5247 173.302 71.7228 173.489C72.0929 173.837 72.4625 174.186 72.8316 174.535C73.0011 174.695 73.1705 174.854 73.345 175.019C73.4928 175.158 73.6405 175.298 73.7928 175.442C74.3824 175.969 75.0058 176.458 75.6236 176.952C75.6236 172.686 75.6236 168.421 75.6236 164.025C76.9567 164.025 78.2898 164.025 79.6633 164.025C79.6633 169.891 79.6633 175.757 79.6633 181.8C75.085 181.8 75.085 181.8 73.4523 180.437C73.1314 180.047 72.8106 179.658 72.4963 179.263C71.9012 178.585 71.2147 178.021 70.5298 177.436C69.6262 176.658 68.7645 175.836 67.8978 175.017C67.5227 174.664 67.1475 174.311 66.7722 173.958C66.5865 173.784 66.4009 173.609 66.2096 173.429C65.372 172.643 64.5321 171.859 63.6898 171.078C63.5464 170.944 63.4029 170.81 63.2551 170.672C62.6407 170.103 62.0491 169.608 61.3502 169.142C61.3502 173.319 61.3502 177.496 61.3502 181.8C60.0171 181.8 58.684 181.8 57.3105 181.8C57.3105 175.934 57.3105 170.069 57.3105 164.025Z" fill="#F1F2F3"/>
<path d="M89.0892 164.025C95.0436 164.025 100.998 164.025 107.133 164.025C107.133 165.092 107.133 166.158 107.133 167.257C102.512 167.257 97.8902 167.257 93.1288 167.257C93.1288 168.59 93.1288 169.923 93.1288 171.297C97.3058 171.297 101.483 171.297 105.786 171.297C105.786 172.274 105.786 173.252 105.786 174.259C101.609 174.259 97.4324 174.259 93.1288 174.259C93.1288 175.681 93.1288 177.103 93.1288 178.568C97.8391 178.568 102.549 178.568 107.402 178.568C107.402 179.635 107.402 180.701 107.402 181.8C101.359 181.8 95.3156 181.8 89.0892 181.8C89.0892 175.934 89.0892 170.069 89.0892 164.025Z" fill="#F1F2F3"/>
<path d="M115.482 164.025C118.111 164.019 120.739 164.014 123.368 164.011C124.589 164.01 125.809 164.008 127.03 164.005C128.207 164.002 129.384 164.001 130.561 164C131.011 163.999 131.461 163.998 131.911 163.997C132.539 163.995 133.167 163.995 133.795 163.995C133.983 163.994 134.171 163.993 134.365 163.992C135.649 163.995 135.649 163.995 135.949 164.295C135.949 165.361 135.949 166.428 135.949 167.526C133.194 167.526 130.439 167.526 127.601 167.526C127.601 172.148 127.601 176.769 127.601 181.531C126.356 181.531 125.112 181.531 123.83 181.531C123.83 176.909 123.83 172.288 123.83 167.526C121.075 167.526 118.32 167.526 115.482 167.526C115.482 166.371 115.482 165.216 115.482 164.025Z" fill="#F1F2F3"/>
<path d="M148.607 167.526C150.232 167.496 151.856 167.469 153.481 167.453C154.033 167.446 154.586 167.437 155.138 167.425C155.933 167.409 156.727 167.401 157.522 167.395C157.769 167.388 158.015 167.381 158.269 167.374C159.501 167.373 160.016 167.393 161.017 168.173C161.668 169.054 161.702 169.458 161.631 170.508C161.487 171.277 161.221 171.773 160.726 172.374C159.963 172.837 159.4 172.979 158.513 172.974C158.181 172.974 158.181 172.974 157.843 172.974C157.489 172.97 157.489 172.97 157.128 172.965C156.884 172.965 156.641 172.964 156.39 172.963C155.613 172.96 154.837 172.953 154.06 172.946C153.533 172.944 153.006 172.941 152.479 172.939C151.188 172.934 149.898 172.923 148.607 172.913C148.607 171.135 148.607 169.358 148.607 167.526Z" fill="#18243A"/>
<path d="M185.233 167.796C185.984 168.469 186.44 169.218 186.945 170.087C187.112 170.375 187.28 170.663 187.452 170.959C187.625 171.259 187.798 171.56 187.977 171.869C188.153 172.171 188.329 172.474 188.511 172.785C189.811 175.029 189.811 175.029 189.811 175.336C186.79 175.336 183.768 175.336 180.655 175.336C183.096 171.065 183.096 171.065 184.004 169.597C184.27 169.165 184.27 169.165 184.542 168.725C184.964 168.065 184.964 168.065 185.233 167.796Z" fill="#1A253C"/>
<path d="M75.3543 164.025C75.4432 164.025 75.5321 164.025 75.6236 164.025C75.6236 168.291 75.6236 172.557 75.6236 176.952C75.2681 176.775 74.9126 176.597 74.5464 176.414C74.7241 176.236 74.9019 176.058 75.085 175.875C75.1738 175.343 75.1738 175.343 75.1709 174.726C75.1762 174.489 75.1816 174.252 75.1871 174.007C75.1902 173.751 75.1933 173.495 75.1965 173.23C75.2017 172.968 75.207 172.706 75.2123 172.436C75.2285 171.596 75.2409 170.756 75.2533 169.917C75.2636 169.348 75.2741 168.78 75.2849 168.211C75.3108 166.816 75.3337 165.421 75.3543 164.025Z" fill="#495261"/>
<path d="M106.864 132.785C108.177 133.257 108.177 133.257 108.48 133.863C107.769 133.774 107.058 133.685 106.325 133.593C106.503 133.327 106.681 133.06 106.864 132.785Z" fill="#3B4458"/>
</g>
<defs>
<clipPath id="clip0_25_1463">
<rect width="254" height="254" rx="127" fill="white"/>
</clipPath>
</defs>
</svg>
